<svg id="h-o-l-ds" width="250" height="250" viewBox="0 0 250 250" version="1.1" xmlns="http://www.w3.org/2000/svg"><circle class="Rang" layer="0" id="Rang0" cx="125" cy="125" r="41.5" fill="none" stroke="#5e3298" stroke-width="1"></circle><g id="RangText1" layer="1" font-size="18" font-style="normal" font-family="Arial" fill="#5e3298" stroke="none" font-weight="normal" in="0" rad="66.5" cut="-154" len="342"><text transform="translate(103.74,168.59) rotate(-146.30)"><tspan>R</tspan></text><text transform="translate(92.95,161.40) rotate(-132.72)"><tspan>e</tspan></text><text transform="translate(86.18,154.08) rotate(-120.91)"><tspan>g</tspan></text><text transform="translate(81.06,145.52) rotate(-112.67)"><tspan>i</tspan></text><text transform="translate(79.53,141.86) rotate(-105.02)"><tspan>s</tspan></text><text transform="translate(77.20,133.21) rotate(-96.79)"><tspan>t</tspan></text><text transform="translate(76.61,128.28) rotate(-87.95)"><tspan>e</tspan></text><text transform="translate(76.96,118.31) rotate(-78.53)"><tspan>r</tspan></text><text transform="translate(78.15,112.47) rotate(-72.67)"><tspan>i</tspan></text><text transform="translate(79.33,108.69) rotate(-64.42)"><tspan>n</tspan></text><text transform="translate(83.63,99.69) rotate(-52.62)"><tspan>g</tspan></text><text transform="translate(89.68,91.76) rotate(-43.19)"><tspan> </tspan></text><text transform="translate(94.03,87.68) rotate(-32.58)"><tspan>&amp;</tspan></text><text transform="translate(104.11,81.23) rotate(-21.96)"><tspan> </tspan></text><text transform="translate(109.64,79.00) rotate(-12.54)"><tspan>L</tspan></text><text transform="translate(119.38,76.83) rotate(-4.29)"><tspan>i</tspan></text><text transform="translate(123.33,76.53) rotate(3.35)"><tspan>c</tspan></text><text transform="translate(132.28,77.05) rotate(14.55)"><tspan>e</tspan></text><text transform="translate(141.93,79.55) rotate(26.36)"><tspan>n</tspan></text><text transform="translate(150.87,83.98) rotate(37.56)"><tspan>s</tspan></text><text transform="translate(157.98,89.44) rotate(45.21)"><tspan>i</tspan></text><text transform="translate(160.77,92.25) rotate(53.45)"><tspan>n</tspan></text><text transform="translate(166.72,100.26) rotate(65.25)"><tspan>g</tspan></text><text transform="translate(170.89,109.32) rotate(74.68)"><tspan> </tspan></text><text transform="translate(172.47,115.07) rotate(85.30)"><tspan>A</tspan></text><text transform="translate(173.46,127.00) rotate(98.29)"><tspan>u</tspan></text><text transform="translate(172.03,136.87) rotate(107.12)"><tspan>t</tspan></text><text transform="translate(170.57,141.62) rotate(115.96)"><tspan>h</tspan></text><text transform="translate(166.20,150.59) rotate(127.76)"><tspan>o</tspan></text><text transform="translate(160.10,158.47) rotate(137.19)"><tspan>r</tspan></text><text transform="translate(155.73,162.52) rotate(143.05)"><tspan>i</tspan></text><text transform="translate(152.56,164.91) rotate(148.32)"><tspan>t</tspan></text><text transform="translate(148.34,167.52) rotate(156.56)"><tspan>y</tspan></text><text transform="translate(140.12,171.08) rotate(165.39)"><tspan> </tspan></text><text transform="translate(134.35,172.59) rotate(178.47)"><tspan>★</tspan></text></g><circle class="Rang" layer="2" id="Rang2" cx="125" cy="125" r="64" fill="none" stroke="#5e3298" stroke-width="1"></circle><text x="125" y="118.5" id="Text3" layer="3" fill="#5e3298" stroke="none" font-size="12" font-family="Arial" font-style="normal" font-weight="normal"><tspan dy="3.78" text-anchor="middle">Dharamshala</tspan></text><text x="125" y="118" id="Text6" layer="6" fill="#5e3298" stroke="none" font-size="12" font-family="Arial" font-style="normal" font-weight="normal"><tspan dy="3.78" text-anchor="middle">___________</tspan></text><text x="125" y="133" id="Text7" layer="7" fill="#5e3298" stroke="none" font-size="12" font-family="Arial" font-style="normal" font-weight="normal"><tspan dy="3.78" text-anchor="middle">176215</tspan></text></svg>